/* XPM */
static char *e8d49c37e45b4bd38bea26f261ec3235vHZ5KSkMHPhamGEe[] = {
/* columns rows colors chars-per-pixel */
"16 41 5 1 ",
"  c #680030",
". c #FF0077",
"X c #76E956",
"o c #FFCB5C",
"O c #477BE7",
/* pixels */
"oooooooooooooooo",
"ooooooooooXXXXXX",
"oooOooooo XXXXXX",
"ooooooooo XXXXXX",
"ooooooooo XXXXXX",
"ooooooooo XXXXXX",
"ooooooooo XXXXXX",
"oo.....oo      o",
"o .....ooooooooo",
"o .....ooooooooo",
"o .....ooooooooo",
"o .....ooooOoooo",
"o     oooooooooo",
"oooooooooooooooo",
"ooooooooo....ooo",
"ooooooooo....ooo",
"oooooooo ....ooo",
"oooooooo ....ooo",
"oooooooo    oooo",
"oOoooooooooooooo",
"oooooooooooooooo",
"oooooooooooooooo",
"oooooooooooooooo",
"oooXXXXXXooooooo",
"oo XXXXXXooooOoo",
"oo XXXXXXooooooo",
"oo XXXXXXooooooo",
"oo XXXXXXooooooo",
"oo XXXXXXooooooo",
"oo      oooooooo",
"oooooooooooooooo",
"oooooooooooooooo",
"oooooooooooooooo",
"oooooooooo.....o",
"ooooooooo .....o",
"ooooooooo .....o",
"oooOooooo .....o",
"ooooooooo .....o",
"ooooooooo     oo",
"oooooooooooooooo",
"oooooooooooooooo"
};
