/* XPM */
static char *_36e4c055d164290a3d113b70db87e55wa4DLpEMtyhsrLjt[] = {
/* columns rows colors chars-per-pixel */
"16 44 29 1 ",
"  c #45476F",
". c #B77455",
"X c #9D6D70",
"o c #6D9D75",
"O c #DB9367",
"+ c #FFB67C",
"@ c #6D6D9D",
"# c #6F6D9D",
"$ c #6D8E9D",
"% c #BE8686",
"& c #86BE93",
"* c #8986BE",
"= c #86A9BE",
"- c #E1A4A1",
"; c #E9BBB6",
": c #A1E1B3",
"> c #FFCA96",
", c #A9A1E1",
"< c #ACA1E1",
"1 c #BFB6E9",
"2 c #C1B6E9",
"3 c #B6E9C7",
"4 c #A1C5E1",
"5 c #B6D0E9",
"6 c #F4DDDB",
"7 c #FFE5CC",
"8 c #E0DBF4",
"9 c #DBF4E3",
"0 c #DBE8F4",
/* pixels */
",,,,,,@,,,,,,,,,",
",,,,,,*,,,,,,,,,",
"111111*111111111",
"111111@,11111111",
"XXXXXXXXXXXXXXXX",
"666666666;X;6666",
";;;;;;;;;6%;;;;;",
";6;;;;;;;6%;;-;;",
";;;;;;;;;6%;;;;;",
";;;;-;;;;6%;;;;;",
";;;;;;;;;6%;;;;;",
";;;;;;;;;;X-;;;;",
"XXXXXXXXXXXXXXXX",
"7>.>777777777777",
">7O>>>>>>>>>>>>>",
">7O>>+>>>>>>>>>>",
">7O>>>>>>>>>>7>>",
">7O>>>>>>>>>>>>>",
">7O>>>>>>>+>>>>>",
">>.+>>>>>>>>>>>>",
"oooooooooooooooo",
"99999993o3999999",
"33333339&3333333",
"33333339&3333333",
"33393339&33333:3",
"33333339&3333333",
"33:33339&3333333",
"33333333o:333333",
"oooooooooooooooo",
"0000000000005$50",
"5555555555550=55",
"5555555555550=55",
"5555555555550=55",
"5555550555550=55",
"5555555555550=55",
"5555555555555$45",
"@@##############",
"888882#288888888",
"222228#222222222",
"222228#2222<2222",
"222228#222222222",
"222228#222222822",
"22<222 222222222",
"<<<<<< <<<<<<<<<"
};
