/* XPM */
static char *fcfdf54e96354474bc71a03a2e435a34K85KNCnwWRB314oI[] = {
/* columns rows colors chars-per-pixel */
"16 41 11 1 ",
"  c #443327",
". c #513B2B",
"X c #6B4424",
"o c #77583F",
"O c #447733",
"+ c #842222",
"@ c #AD5F1F",
"# c #89572E",
"$ c #E07B28",
"% c #F09F4D",
"& c #FFCF87",
/* pixels */
"oooooo.%%.oooooo",
"oooooo.%%.oooooo",
"ooooo..%%@.ooooo",
"ooooo.%%%%.ooooo",
"ooooo.%%O%.ooooo",
"ooooo.+%O%.ooooo",
"ooooo.++OO.ooooo",
"ooooo.++%O.ooooo",
"ooooo.+%%%.ooooo",
"ooooo.%%%%@.oooo",
"ooooX##%%%%.oooo",
"oooX####%%%.oooo",
"oooX#X##%%%.oooo",
"ooo.XXX%%%%.oooo",
"ooo.X##%%%%.oooo",
"ooo..%%%%%%.oooo",
"ooo.@%%%%%++oooo",
"ooo.%%%%%++++ooo",
"ooo.%%$%%++++ooo",
"ooo.O%%%%%++.ooo",
"ooo.O%%%%%%%.ooo",
"oo..OO%%%%%%.ooo",
"oo.@%O%%%%%%@ooo",
"oo.%%%%%%%##%.oo",
"oo.+$%%%#X###.oo",
"oo.++%%%#XX##.oo",
"oo.++%%%%%XX%.oo",
"oo.+  %%%%%%%.oo",
"o.. % %%%%%%%.oo",
"o.@  %%%%%%%%@oo",
"o.%%%%%OOO%%%%.o",
"o.%%%%%%%OO%%%.o",
"o.##%%%%++%%%%.o",
"o.##%%%++++%%%.o",
"o.###%%++++%%%.o",
"..X##%%%++%%%%.o",
".@XX%%%%%%&%%%@.",
".%%%%%%%%%%&%%%.",
".%%%%%%%%%%&%%%.",
".$%$+++$%&&%++$.",
".++++++++++++++."
};
